<svg height="512" viewBox="0 0 256 256" width="512" xmlns="http://www.w3.org/2000/svg"><path d="m170.148 115.456c-16.331-7.203-24.748-21.456-25.748-43.556a2.5 2.5 0 1 0 -4.994.224c.562 12.521 3.514 22.888 8.77 31.082l-18.518 30.558a2.5 2.5 0 0 0 2.138 3.8h6.457a2.5 2.5 0 0 0 1.829-.8l5.591-6-3.7 19.265a2.5 2.5 0 0 0 2.46 2.971h11.089a2.5 2.5 0 0 0 2.5-2.4l1.475-35.482a48.367 48.367 0 0 0 8.635 4.912 2.5 2.5 0 1 0 2.017-4.575zm-32.98 17.1h-.931l13.311-21.967-2.1 10.935zm15.956 15.444h-5.666s7.168-36.931 7.2-36.9z" fill="#65c1d6"/><g fill="#846f75"><path d="m237.467 46.7a19.053 19.053 0 0 0 -38.075-1.085c-3.082-2.089-8.064-5.085-11.566-5.3-4.518-.283-23.639-.018-24.6-.005h-.056l-44.44 1.318a2.512 2.512 0 0 0 -1.216.358c-2.866 1.727-4.174 5.6-3.417 10.093.767 4.553 3.4 7.947 6.7 8.648a14.289 14.289 0 0 0 2.943.345 8.828 8.828 0 0 0 1.048-.059 9.1 9.1 0 0 0 6.82-3.8l29.4-.888a4.5 4.5 0 0 0 2.389 2.616l-9.019 7.279a7.539 7.539 0 0 0 -2.78 6.291c1.139 19.72 6.794 31.771 17.29 36.841a2.494 2.494 0 0 0 1.96.091l14.32-5.334a2.5 2.5 0 0 0 -1.746-4.686l-13.282 4.949c-8.125-4.507-12.562-15.041-13.549-32.15a2.525 2.525 0 0 1 .927-2.111l13.341-10.766h8.662a2.5 2.5 0 0 0 0-5h-13.778v-9.068c5.459-.065 18.354-.188 21.771.026 2.712.17 8.524 3.91 11.55 6.227a2.465 2.465 0 0 0 1.035.459 19.077 19.077 0 0 0 17.382 13.731l4.627 13.147a13.311 13.311 0 0 1 .545 6.773l-2.353 13.065a2.5 2.5 0 0 0 4.922.884l2.349-13.065a18.336 18.336 0 0 0 -.75-9.317l-4.2-11.928a19.088 19.088 0 0 0 14.846-18.579zm-107.514 5.56a2.2 2.2 0 0 0 -2.335 1.836c-.054.165-.6 1.619-3.411 1.949a7.572 7.572 0 0 1 -2.371-.212c-1.2-.255-2.411-2.227-2.809-4.586-.331-1.966-.043-3.793.685-4.647l41.031-1.218v5.948zm88.447 8.507a14.065 14.065 0 1 1 14.067-14.067 14.081 14.081 0 0 1 -14.067 14.067z"/><path d="m204.091 88.8a2.488 2.488 0 0 0 -.85-.528l-5.051-15.63a2.494 2.494 0 0 0 -.905-1.251l-13.9-10.144a2.5 2.5 0 0 0 -3.435.469c-.606.767-5.844 7.656-2.912 13.152 2.092 3.922 8.4 6.742 11.457 7.92l2.241 34.029a7.362 7.362 0 0 0 7.325 6.877 7.627 7.627 0 0 0 .8-.042l5.55-.59a7.338 7.338 0 0 0 5.774-3.968l7.607-14.876a2.5 2.5 0 0 0 -.509-2.955zm1.642 28.015a2.355 2.355 0 0 1 -1.851 1.272l-5.55.59a2.359 2.359 0 0 1 -2.6-2.191l-2.349-35.662a2.5 2.5 0 0 0 -1.712-2.21c-3.508-1.159-9-3.817-10.214-6.1-.768-1.441.091-3.82 1.111-5.678l11.118 8.115 9.831 30.428a2.5 2.5 0 1 0 4.758-1.537l-1.96-6.066 6.176 5.834z"/><path d="m54.57 51.98a3.386 3.386 0 0 1 4.37-2.741l75.008 23.655a2.5 2.5 0 0 0 1.5-4.769l-75.004-23.655a8.373 8.373 0 0 0 -5.977.366 2.457 2.457 0 0 0 -.467-.336l-24-12.938a4.963 4.963 0 0 0 -7.112 2.959l-4.148 13.979a4.963 4.963 0 0 0 5 6.367l13.733-.681 11.227 3.014c.019.005.038 0 .058.007l-1.064 7.306a10.041 10.041 0 0 0 5.845 10.587l74.385 33.013a6.746 6.746 0 0 1 3.174 2.93l1.406 2.584a2.5 2.5 0 1 0 4.392-2.39l-1.406-2.583a11.768 11.768 0 0 0 -5.539-5.111l-74.384-33.009a5.025 5.025 0 0 1 -2.925-5.3zm-16.177-2.722a2.532 2.532 0 0 0 -.773-.083l-14.086.748 4.087-13.958 23 12.4a8.383 8.383 0 0 0 -1 2.9l-.142.973z"/><path d="m173.979 217.641-11.829-10.009a1.745 1.745 0 0 1 -.618-1.333v-5.62a8.59 8.59 0 0 0 1.543-.6 8.723 8.723 0 0 0 4.391-5.344l7.591-26.533a23.214 23.214 0 0 0 .852-7.814l-2.028-33.04a2.5 2.5 0 1 0 -4.99.307l2.028 33.038a18.25 18.25 0 0 1 -.669 6.134l-7.591 26.533a3.695 3.695 0 0 1 -4.8 2.461l-7.691-2.755a3.689 3.689 0 0 1 -2.395-4.1l5.486-31.935a2.5 2.5 0 1 0 -4.928-.846l-5.485 31.935a8.674 8.674 0 0 0 3.177 8.286l-5.023 20.047a6.007 6.007 0 0 0 4.7 7.36l23.212 4.441a6.131 6.131 0 0 0 1.149.109 6.08 6.08 0 0 0 3.92-10.722zm-3.239 5.473a1.062 1.062 0 0 1 -.89.229l-23.212-4.443a1.009 1.009 0 0 1 -.788-1.234l4.794-19.119 5.533 1.982c.117.042.237.074.355.11v5.661a6.732 6.732 0 0 0 2.388 5.15l11.829 10.009a1.079 1.079 0 0 1 .383.824 1.063 1.063 0 0 1 -.392.831z"/></g><path d="m122.533 81.105a2.493 2.493 0 0 1 -.859-.153l-38.744-14.178a2.5 2.5 0 1 1 1.718-4.695l38.745 14.178a2.5 2.5 0 0 1 -.86 4.848z" fill="#ebe7f2"/></svg>